# WaveFront *.obj file (generated by Autodesk ATF)

mtllib Tip30.mtl

g Body1

v 0.202500 0.350740 -0.650740
v 0.000000 0.350740 -0.300000
v 0.000000 1.000000 -0.300000
v 0.900000 1.000000 -1.858846
v 0.900000 -1.000000 -1.858846
v 0.000000 -1.000000 -0.300000
v 0.000000 -0.350740 -0.300000
v 0.202500 -0.350740 -0.650740
v 0.405000 0.000000 -1.001481
v -0.900000 0.900000 0.200000
v 0.900000 0.900000 0.200000
v 0.900000 0.900000 0.500000
v -0.900000 0.900000 0.500000
v 0.900000 1.000000 0.500000
v -0.900000 1.000000 0.500000
v 0.900000 -0.900000 0.200000
v 0.900000 -0.900000 0.500000
v 0.900000 -1.000000 0.500000
v 0.225000 -0.000000 0.200000
v 0.217333 -0.058234 0.200000
v 0.194856 -0.112500 0.200000
v 0.159099 -0.159099 0.200000
v 0.112500 -0.194856 0.200000
v 0.058234 -0.217333 0.200000
v -0.000000 -0.225000 0.200000
v -0.058234 -0.217333 0.200000
v -0.112500 -0.194856 0.200000
v -0.159099 -0.159099 0.200000
v -0.194856 -0.112500 0.200000
v -0.217333 -0.058234 0.200000
v -0.225000 0.000000 0.200000
v -0.217333 0.058234 0.200000
v -0.194856 0.112500 0.200000
v -0.159099 0.159099 0.200000
v -0.112500 0.194856 0.200000
v -0.058234 0.217333 0.200000
v -0.000000 0.225000 0.200000
v 0.058234 0.217333 0.200000
v 0.112500 0.194856 0.200000
v 0.159099 0.159099 0.200000
v 0.194856 0.112500 0.200000
v 0.217333 0.058234 0.200000
v -0.900000 -0.900000 0.200000
v -0.900000 -0.900000 0.500000
v -0.900000 -1.000000 0.500000
v -0.900000 1.000000 -0.300000
v -0.900000 -1.000000 -0.300000
v -0.225000 0.000000 0.000000
v -0.217333 0.058234 0.000000
v -0.194856 0.112500 0.000000
v -0.159099 0.159099 0.000000
v -0.112500 0.194856 0.000000
v -0.058234 0.217333 0.000000
v 0.000000 0.225000 0.000000
v 0.058234 0.217333 0.000000
v 0.112500 0.194856 0.000000
v 0.159099 0.159099 0.000000
v 0.194856 0.112500 0.000000
v 0.217333 0.058234 0.000000
v 0.225000 -0.000000 0.000000
v 0.217333 -0.058234 0.000000
v 0.194856 -0.112500 0.000000
v 0.159099 -0.159099 0.000000
v 0.112500 -0.194856 0.000000
v 0.058234 -0.217333 0.000000
v -0.000000 -0.225000 0.000000
v -0.058234 -0.217333 0.000000
v -0.112500 -0.194856 0.000000
v -0.159099 -0.159099 0.000000
v -0.194856 -0.112500 0.000000
v -0.217333 -0.058234 0.000000
v 0.202500 0.350740 0.000000
v 0.405000 0.000000 0.000000
v 0.202500 -0.350740 0.000000
v -0.202500 -0.350740 0.000000
v -0.405000 -0.000000 0.000000
v -0.202500 0.350740 0.000000
v -0.202500 -0.350740 -0.300000
v -0.405000 -0.000000 -0.300000
v -0.202500 0.350740 -0.300000
vt 1.800000 1.350740 0.000000
vt 1.800000 2.000000 0.000000
vt 1.395000 1.350740 0.000000
vt 0.000000 2.000000 0.000000
vt 0.990000 1.000000 0.000000
vt 0.000000 0.000000 0.000000
vt 1.395000 0.649260 0.000000
vt 1.800000 0.000000 0.000000
vt 1.800000 0.649260 0.000000
vt 0.000000 0.200000 0.000000
vt 1.800000 0.200000 0.000000
vt 0.000000 0.500000 0.000000
vt 1.800000 0.500000 0.000000
vt -0.900000 -0.050000 0.000000
vt 0.900000 -0.050000 0.000000
vt -0.900000 0.050000 0.000000
vt 0.900000 0.050000 0.000000
vt -0.000000 -0.500000 0.000000
vt 0.100000 -0.200000 0.000000
vt 0.000000 1.858846 0.000000
vt 1.900000 -0.200000 0.000000
vt 2.000000 1.858846 0.000000
vt 2.000000 -0.500000 0.000000
vt 1.900000 -0.500000 0.000000
vt 0.100000 -0.500000 0.000000
vt 0.217333 -0.058234 0.000000
vt 0.900000 -0.900000 0.000000
vt 0.225000 0.000000 0.000000
vt 0.900000 0.900000 0.000000
vt 0.217333 0.058234 0.000000
vt 0.194856 0.112500 0.000000
vt 0.159099 0.159099 0.000000
vt 0.112500 0.194856 0.000000
vt 0.058234 0.217333 0.000000
vt 0.000000 0.225000 0.000000
vt -0.900000 0.900000 0.000000
vt -0.058234 0.217333 0.000000
vt -0.112500 0.194856 0.000000
vt -0.159099 0.159099 0.000000
vt -0.194856 0.112500 0.000000
vt -0.217333 0.058234 0.000000
vt -0.225000 0.000000 0.000000
vt -0.900000 -0.900000 0.000000
vt -0.217333 -0.058234 0.000000
vt -0.194856 -0.112500 0.000000
vt -0.159099 -0.159099 0.000000
vt -0.112500 -0.194856 0.000000
vt -0.058234 -0.217333 0.000000
vt 0.000000 -0.225000 0.000000
vt 0.058234 -0.217333 0.000000
vt 0.112500 -0.194856 0.000000
vt 0.159099 -0.159099 0.000000
vt 0.194856 -0.112500 0.000000
vt 0.000000 0.200000 0.000000
vt 1.800000 0.200000 0.000000
vt 0.000000 0.500000 0.000000
vt 1.800000 0.500000 0.000000
vt 0.900000 0.050000 0.000000
vt -0.900000 0.050000 0.000000
vt 0.900000 -0.050000 0.000000
vt -0.900000 -0.050000 0.000000
vt 1.900000 -0.500000 0.000000
vt 2.000000 -0.500000 0.000000
vt 1.900000 -0.200000 0.000000
vt 2.000000 0.300000 0.000000
vt 0.000000 0.300000 0.000000
vt 0.100000 -0.200000 0.000000
vt 0.000000 -0.500000 0.000000
vt 0.100000 -0.500000 0.000000
vt 0.050000 -0.647953 0.000000
vt -0.150000 -0.647953 0.000000
vt 0.050000 -0.706858 0.000000
vt -0.150000 -0.706858 0.000000
vt 0.050000 0.706858 0.000000
vt -0.150000 0.706858 0.000000
vt 0.050000 0.647953 0.000000
vt -0.150000 0.647953 0.000000
vt 0.050000 0.589049 0.000000
vt -0.150000 0.589049 0.000000
vt 0.050000 0.530144 0.000000
vt -0.150000 0.530144 0.000000
vt 0.050000 0.471239 0.000000
vt -0.150000 0.471239 0.000000
vt 0.050000 0.412334 0.000000
vt -0.150000 0.412334 0.000000
vt 0.050000 0.353429 0.000000
vt -0.150000 0.353429 0.000000
vt 0.050000 0.294524 0.000000
vt -0.150000 0.294524 0.000000
vt 0.050000 0.235619 0.000000
vt -0.150000 0.235619 0.000000
vt 0.050000 0.176715 0.000000
vt -0.150000 0.176715 0.000000
vt 0.050000 0.117810 0.000000
vt -0.150000 0.117810 0.000000
vt 0.050000 0.058905 0.000000
vt -0.150000 0.058905 0.000000
vt 0.050000 0.000000 0.000000
vt -0.150000 -0.000000 0.000000
vt 0.050000 -0.058905 0.000000
vt -0.150000 -0.058905 0.000000
vt 0.050000 -0.117810 0.000000
vt -0.150000 -0.117810 0.000000
vt 0.050000 -0.176715 0.000000
vt -0.150000 -0.176715 0.000000
vt 0.050000 -0.235619 0.000000
vt -0.150000 -0.235619 0.000000
vt 0.050000 -0.294524 0.000000
vt -0.150000 -0.294524 0.000000
vt 0.050000 -0.353429 0.000000
vt -0.150000 -0.353429 0.000000
vt 0.050000 -0.412334 0.000000
vt -0.150000 -0.412334 0.000000
vt 0.050000 -0.471239 0.000000
vt -0.150000 -0.471239 0.000000
vt 0.050000 -0.530144 0.000000
vt -0.150000 -0.530144 0.000000
vt 0.050000 -0.589049 0.000000
vt -0.150000 -0.589049 0.000000
vt 0.217333 0.058234 0.000000
vt 0.225000 0.000000 0.000000
vt 0.405000 0.000000 0.000000
vt 0.217333 -0.058234 0.000000
vt 0.194856 -0.112500 0.000000
vt 0.202500 -0.350740 0.000000
vt 0.159099 -0.159099 0.000000
vt 0.112500 -0.194856 0.000000
vt 0.058234 -0.217333 0.000000
vt -0.000000 -0.225000 0.000000
vt -0.202500 -0.350740 0.000000
vt -0.058234 -0.217333 0.000000
vt -0.112500 -0.194856 0.000000
vt -0.159099 -0.159099 0.000000
vt -0.194856 -0.112500 0.000000
vt -0.405000 0.000000 0.000000
vt -0.217333 -0.058234 0.000000
vt -0.225000 0.000000 0.000000
vt -0.217333 0.058234 0.000000
vt -0.194856 0.112500 0.000000
vt -0.202500 0.350740 0.000000
vt -0.159099 0.159099 0.000000
vt -0.112500 0.194856 0.000000
vt -0.058234 0.217333 0.000000
vt -0.000000 0.225000 0.000000
vt 0.202500 0.350740 0.000000
vt 0.058234 0.217333 0.000000
vt 0.112500 0.194856 0.000000
vt 0.159099 0.159099 0.000000
vt 0.194856 0.112500 0.000000
vt 0.405000 0.000000 0.000000
vt 0.405000 0.650740 0.000000
vt 0.000000 0.000000 0.000000
vt 0.000000 1.001481 0.000000
vt 0.000000 0.000000 0.000000
vt 0.405000 0.000000 0.000000
vt 0.000000 0.650740 0.000000
vt 0.405000 1.001481 0.000000
vt 0.000000 0.300000 0.000000
vt 0.000000 0.000000 0.000000
vt 0.202500 0.300000 0.000000
vt 0.405000 0.000000 0.000000
vt 0.405000 0.650740 0.000000
vt 0.000000 0.000000 0.000000
vt 0.405000 0.000000 0.000000
vt -0.000000 0.300000 0.000000
vt 0.405000 0.300000 0.000000
vt 0.000000 0.000000 0.000000
vt 0.405000 0.000000 0.000000
vt -0.000000 0.300000 0.000000
vt 0.405000 0.300000 0.000000
vt -0.000000 0.650740 0.000000
vt 0.000000 0.000000 0.000000
vt 0.202500 0.300000 0.000000
vt 0.405000 0.000000 0.000000
vt 0.405000 0.300000 0.000000
vt 1.800000 0.300000 0.000000
vt 0.900000 0.300000 0.000000
vt 1.800000 -0.500000 0.000000
vt -0.000000 -0.500000 0.000000
vt -0.000000 1.858846 0.000000
vt 1.800000 1.858846 0.000000
vt 0.900000 0.300000 0.000000
vt 1.800000 -0.500000 0.000000
vt -0.000000 -0.500000 0.000000
vt -0.000000 0.300000 0.000000
vt -0.000000 -0.350740 0.000000
vt -0.000000 -1.000000 0.000000
vt 0.202500 -0.350740 0.000000
vt 0.900000 -1.000000 0.000000
vt 0.405000 0.000000 0.000000
vt 0.900000 1.000000 0.000000
vt 0.202500 0.350740 0.000000
vt -0.000000 1.000000 0.000000
vt -0.000000 0.350740 0.000000
vn -0.866025 0.000000 -0.500000
vn -0.866025 0.000000 -0.500000
vn -0.866025 0.000000 -0.500000
vn -0.866025 0.000000 -0.500000
vn -0.866025 0.000000 -0.500000
vn -0.866025 0.000000 -0.500000
vn -0.866025 0.000000 -0.500000
vn -0.866025 0.000000 -0.500000
vn -0.866025 0.000000 -0.500000
vn -0.000000 -1.000000 0.000000
vn -0.000000 -1.000000 0.000000
vn -0.000000 -1.000000 0.000000
vn -0.000000 -1.000000 0.000000
vn 0.000000 0.000000 1.000000
vn 0.000000 0.000000 1.000000
vn 0.000000 0.000000 1.000000
vn 0.000000 0.000000 1.000000
vn 1.000000 -0.000000 0.000000
vn 1.000000 -0.000000 0.000000
vn 1.000000 -0.000000 0.000000
vn 1.000000 -0.000000 0.000000
vn 1.000000 -0.000000 0.000000
vn 1.000000 -0.000000 0.000000
vn 1.000000 -0.000000 0.000000
vn 1.000000 -0.000000 0.000000
vn 0.000000 0.000000 1.000000
vn 0.000000 0.000000 1.000000
vn 0.000000 0.000000 1.000000
vn 0.000000 0.000000 1.000000
vn 0.000000 0.000000 1.000000
vn 0.000000 0.000000 1.000000
vn 0.000000 0.000000 1.000000
vn 0.000000 0.000000 1.000000
vn 0.000000 0.000000 1.000000
vn 0.000000 0.000000 1.000000
vn 0.000000 0.000000 1.000000
vn 0.000000 0.000000 1.000000
vn 0.000000 0.000000 1.000000
vn 0.000000 0.000000 1.000000
vn 0.000000 0.000000 1.000000
vn 0.000000 0.000000 1.000000
vn 0.000000 0.000000 1.000000
vn 0.000000 0.000000 1.000000
vn 0.000000 0.000000 1.000000
vn 0.000000 0.000000 1.000000
vn 0.000000 0.000000 1.000000
vn 0.000000 0.000000 1.000000
vn 0.000000 0.000000 1.000000
vn 0.000000 0.000000 1.000000
vn 0.000000 0.000000 1.000000
vn 0.000000 0.000000 1.000000
vn 0.000000 0.000000 1.000000
vn 0.000000 0.000000 1.000000
vn 0.000000 1.000000 -0.000000
vn 0.000000 1.000000 -0.000000
vn 0.000000 1.000000 -0.000000
vn 0.000000 1.000000 -0.000000
vn 0.000000 0.000000 1.000000
vn 0.000000 0.000000 1.000000
vn 0.000000 0.000000 1.000000
vn 0.000000 0.000000 1.000000
vn -1.000000 -0.000000 -0.000000
vn -1.000000 -0.000000 -0.000000
vn -1.000000 -0.000000 -0.000000
vn -1.000000 -0.000000 -0.000000
vn -1.000000 -0.000000 -0.000000
vn -1.000000 -0.000000 -0.000000
vn -1.000000 -0.000000 -0.000000
vn -1.000000 -0.000000 -0.000000
vn -0.965926 -0.258819 0.000000
vn -0.965926 -0.258819 0.000000
vn -1.000000 -0.000000 0.000000
vn -1.000000 -0.000000 0.000000
vn -0.965926 0.258819 0.000000
vn -0.965926 0.258819 0.000000
vn -0.866025 0.500000 0.000000
vn -0.866025 0.500000 0.000000
vn -0.707107 0.707107 0.000000
vn -0.707107 0.707107 0.000000
vn -0.500000 0.866025 0.000000
vn -0.500000 0.866025 0.000000
vn -0.258819 0.965926 0.000000
vn -0.258819 0.965926 0.000000
vn 0.000000 1.000000 -0.000000
vn 0.000000 1.000000 -0.000000
vn 0.258819 0.965926 -0.000000
vn 0.258819 0.965926 -0.000000
vn 0.500000 0.866025 -0.000000
vn 0.500000 0.866025 -0.000000
vn 0.707107 0.707107 -0.000000
vn 0.707107 0.707107 -0.000000
vn 0.866025 0.500000 -0.000000
vn 0.866025 0.500000 -0.000000
vn 0.965926 0.258819 -0.000000
vn 0.965926 0.258819 -0.000000
vn 1.000000 0.000000 -0.000000
vn 1.000000 0.000000 -0.000000
vn 0.965926 -0.258819 0.000000
vn 0.965926 -0.258819 0.000000
vn 0.866025 -0.500000 0.000000
vn 0.866025 -0.500000 0.000000
vn 0.707107 -0.707107 0.000000
vn 0.707107 -0.707107 0.000000
vn 0.500000 -0.866025 0.000000
vn 0.500000 -0.866025 0.000000
vn 0.258819 -0.965926 0.000000
vn 0.258819 -0.965926 0.000000
vn 0.000000 -1.000000 0.000000
vn -0.000000 -1.000000 0.000000
vn -0.258819 -0.965926 0.000000
vn -0.258819 -0.965926 0.000000
vn -0.500000 -0.866025 0.000000
vn -0.500000 -0.866025 0.000000
vn -0.707107 -0.707107 0.000000
vn -0.707107 -0.707107 0.000000
vn -0.866025 -0.500000 0.000000
vn -0.866025 -0.500000 0.000000
vn -0.000000 -0.000000 -1.000000
vn -0.000000 -0.000000 -1.000000
vn -0.000000 -0.000000 -1.000000
vn -0.000000 -0.000000 -1.000000
vn -0.000000 -0.000000 -1.000000
vn -0.000000 -0.000000 -1.000000
vn -0.000000 -0.000000 -1.000000
vn -0.000000 -0.000000 -1.000000
vn -0.000000 -0.000000 -1.000000
vn -0.000000 -0.000000 -1.000000
vn -0.000000 -0.000000 -1.000000
vn -0.000000 -0.000000 -1.000000
vn -0.000000 -0.000000 -1.000000
vn -0.000000 -0.000000 -1.000000
vn -0.000000 -0.000000 -1.000000
vn -0.000000 -0.000000 -1.000000
vn -0.000000 -0.000000 -1.000000
vn -0.000000 -0.000000 -1.000000
vn -0.000000 -0.000000 -1.000000
vn -0.000000 -0.000000 -1.000000
vn -0.000000 -0.000000 -1.000000
vn -0.000000 -0.000000 -1.000000
vn -0.000000 -0.000000 -1.000000
vn -0.000000 -0.000000 -1.000000
vn -0.000000 -0.000000 -1.000000
vn -0.000000 -0.000000 -1.000000
vn -0.000000 -0.000000 -1.000000
vn -0.000000 -0.000000 -1.000000
vn -0.000000 -0.000000 -1.000000
vn -0.000000 -0.000000 -1.000000
vn -0.866025 -0.500000 -0.000000
vn -0.866025 -0.500000 -0.000000
vn -0.866025 -0.500000 -0.000000
vn -0.866025 -0.500000 -0.000000
vn -0.866025 0.500000 0.000000
vn -0.866025 0.500000 0.000000
vn -0.866025 0.500000 0.000000
vn -0.866025 0.500000 0.000000
vn -0.000000 1.000000 0.000000
vn -0.000000 1.000000 0.000000
vn -0.000000 1.000000 0.000000
vn -0.000000 1.000000 0.000000
vn -0.000000 1.000000 0.000000
vn 0.866025 0.500000 0.000000
vn 0.866025 0.500000 0.000000
vn 0.866025 0.500000 0.000000
vn 0.866025 0.500000 0.000000
vn 0.866025 -0.500000 0.000000
vn 0.866025 -0.500000 0.000000
vn 0.866025 -0.500000 0.000000
vn 0.866025 -0.500000 0.000000
vn 0.000000 -1.000000 0.000000
vn 0.000000 -1.000000 0.000000
vn 0.000000 -1.000000 0.000000
vn 0.000000 -1.000000 0.000000
vn 0.000000 -1.000000 0.000000
vn 0.000000 -1.000000 0.000000
vn 0.000000 -1.000000 0.000000
vn 0.000000 -1.000000 0.000000
vn 0.000000 -1.000000 0.000000
vn 0.000000 -1.000000 0.000000
vn 0.000000 1.000000 0.000000
vn 0.000000 1.000000 0.000000
vn 0.000000 1.000000 0.000000
vn 0.000000 1.000000 0.000000
vn 0.000000 1.000000 0.000000
vn 0.000000 0.000000 -1.000000
vn 0.000000 0.000000 -1.000000
vn 0.000000 0.000000 -1.000000
vn 0.000000 0.000000 -1.000000
vn 0.000000 0.000000 -1.000000
vn 0.000000 0.000000 -1.000000
vn 0.000000 0.000000 -1.000000
vn 0.000000 0.000000 -1.000000
vn 0.000000 0.000000 -1.000000
usemtl Steel_-_Satin
f 2/1/1 3/2/2 1/3/3
f 1/3/3 3/2/2 4/4/4
f 1/3/3 4/4/4 9/5/5
f 9/5/5 4/4/4 5/6/6
f 9/5/5 5/6/6 8/7/7
f 8/7/7 5/6/6 6/8/8
f 8/7/7 6/8/8 7/9/9
f 10/10/10 11/11/11 13/12/12
f 13/12/12 11/11/11 12/13/13
f 13/14/14 12/15/15 15/16/16
f 15/16/16 12/15/15 14/17/17
f 14/18/18 11/19/19 4/20/20
f 4/20/20 11/19/19 16/21/21
f 4/20/20 16/21/21 5/22/22
f 5/22/22 16/21/21 18/23/23
f 18/23/23 16/21/21 17/24/24
f 14/18/18 12/25/25 11/19/19
f 20/26/26 16/27/27 19/28/28
f 19/28/28 16/27/27 11/29/29
f 19/28/28 11/29/29 42/30/30
f 42/30/30 11/29/29 41/31/31
f 41/31/31 11/29/29 40/32/32
f 40/32/32 11/29/29 39/33/33
f 39/33/33 11/29/29 38/34/34
f 38/34/34 11/29/29 37/35/35
f 37/35/35 11/29/29 10/36/36
f 37/35/35 10/36/36 36/37/37
f 36/37/37 10/36/36 35/38/38
f 35/38/38 10/36/36 34/39/39
f 34/39/39 10/36/36 33/40/40
f 33/40/40 10/36/36 32/41/41
f 32/41/41 10/36/36 31/42/42
f 31/42/42 10/36/36 43/43/43
f 31/42/42 43/43/43 30/44/44
f 30/44/44 43/43/43 29/45/45
f 29/45/45 43/43/43 28/46/46
f 28/46/46 43/43/43 27/47/47
f 27/47/47 43/43/43 26/48/48
f 26/48/48 43/43/43 25/49/49
f 25/49/49 43/43/43 16/27/27
f 25/49/49 16/27/27 24/50/50
f 24/50/50 16/27/27 23/51/51
f 23/51/51 16/27/27 22/52/52
f 22/52/52 16/27/27 21/53/53
f 21/53/53 16/27/27 20/26/26
f 16/54/54 43/55/55 17/56/56
f 17/56/56 43/55/55 44/57/57
f 17/58/58 44/59/59 18/60/60
f 18/60/60 44/59/59 45/61/61
f 13/62/62 15/63/63 10/64/64
f 10/64/64 15/63/63 46/65/65
f 10/64/64 46/65/65 47/66/66
f 10/64/64 47/66/66 43/67/67
f 43/67/67 47/66/66 45/68/68
f 43/67/67 45/68/68 44/69/69
f 42/70/70 59/71/71 19/72/72
f 19/72/72 59/71/71 60/73/73
f 19/74/72 60/75/73 20/76/74
f 20/76/74 60/75/73 61/77/75
f 20/76/74 61/77/75 21/78/76
f 21/78/76 61/77/75 62/79/77
f 21/78/76 62/79/77 22/80/78
f 22/80/78 62/79/77 63/81/79
f 22/80/78 63/81/79 23/82/80
f 23/82/80 63/81/79 64/83/81
f 23/82/80 64/83/81 24/84/82
f 24/84/82 64/83/81 65/85/83
f 24/84/82 65/85/83 25/86/84
f 25/86/84 65/85/83 66/87/85
f 25/86/84 66/87/85 26/88/86
f 26/88/86 66/87/85 67/89/87
f 26/88/86 67/89/87 27/90/88
f 27/90/88 67/89/87 68/91/89
f 27/90/88 68/91/89 28/92/90
f 28/92/90 68/91/89 69/93/91
f 28/92/90 69/93/91 29/94/92
f 29/94/92 69/93/91 70/95/93
f 29/94/92 70/95/93 30/96/94
f 30/96/94 70/95/93 71/97/95
f 30/96/94 71/97/95 31/98/96
f 31/98/96 71/97/95 48/99/97
f 31/98/96 48/99/97 32/100/98
f 32/100/98 48/99/97 49/101/99
f 32/100/98 49/101/99 33/102/100
f 33/102/100 49/101/99 50/103/101
f 33/102/100 50/103/101 34/104/102
f 34/104/102 50/103/101 51/105/103
f 34/104/102 51/105/103 35/106/104
f 35/106/104 51/105/103 52/107/105
f 35/106/104 52/107/105 36/108/106
f 36/108/106 52/107/105 53/109/107
f 36/108/106 53/109/107 37/110/108
f 37/110/108 53/109/107 54/111/109
f 37/110/108 54/111/109 38/112/110
f 38/112/110 54/111/109 55/113/111
f 38/112/110 55/113/111 39/114/112
f 39/114/112 55/113/111 56/115/113
f 39/114/112 56/115/113 40/116/114
f 40/116/114 56/115/113 57/117/115
f 40/116/114 57/117/115 41/118/116
f 41/118/116 57/117/115 58/119/117
f 41/118/116 58/119/117 42/70/70
f 42/70/70 58/119/117 59/71/71
f 49/120/118 48/121/119 76/122/120
f 76/122/120 48/121/119 71/123/121
f 76/122/120 71/123/121 70/124/122
f 76/122/120 70/124/122 75/125/123
f 75/125/123 70/124/122 69/126/124
f 75/125/123 69/126/124 68/127/125
f 68/127/125 67/128/126 75/125/123
f 75/125/123 67/128/126 66/129/127
f 75/125/123 66/129/127 74/130/128
f 74/130/128 66/129/127 65/131/129
f 74/130/128 65/131/129 64/132/130
f 64/132/130 63/133/131 74/130/128
f 74/130/128 63/133/131 62/134/132
f 74/130/128 62/134/132 73/135/133
f 73/135/133 62/134/132 61/136/134
f 73/135/133 61/136/134 60/137/135
f 60/137/135 59/138/136 73/135/133
f 73/135/133 59/138/136 58/139/137
f 73/135/133 58/139/137 72/140/138
f 72/140/138 58/139/137 57/141/139
f 72/140/138 57/141/139 56/142/140
f 56/142/140 55/143/141 72/140/138
f 72/140/138 55/143/141 54/144/142
f 72/140/138 54/144/142 77/145/143
f 77/145/143 54/144/142 53/146/144
f 77/145/143 53/146/144 52/147/145
f 52/147/145 51/148/146 77/145/143
f 77/145/143 51/148/146 50/149/147
f 77/145/143 50/149/147 76/122/120
f 76/122/120 50/149/147 49/120/118
f 72/150/148 1/151/149 73/152/150
f 73/152/150 1/151/149 9/153/151
f 74/154/152 73/155/153 8/156/154
f 8/156/154 73/155/153 9/157/155
f 78/158/156 75/159/157 7/160/158
f 7/160/158 75/159/157 74/161/159
f 7/160/158 74/161/159 8/162/160
f 76/163/161 75/164/162 79/165/163
f 79/165/163 75/164/162 78/166/164
f 77/167/165 76/168/166 80/169/167
f 80/169/167 76/168/166 79/170/168
f 1/171/169 72/172/170 2/173/171
f 2/173/171 72/172/170 77/174/172
f 2/173/171 77/174/172 80/175/173
f 47/176/174 6/177/175 45/178/176
f 45/178/176 6/177/175 18/179/177
f 18/179/177 6/177/175 5/180/178
f 4/181/179 3/182/180 14/183/181
f 14/183/181 3/182/180 15/184/182
f 15/184/182 3/182/180 46/185/183
f 7/186/184 6/187/185 78/188/186
f 78/188/186 6/187/185 47/189/187
f 78/188/186 47/189/187 79/190/188
f 79/190/188 47/189/187 46/191/189
f 79/190/188 46/191/189 80/192/190
f 80/192/190 46/191/189 3/193/191
f 80/192/190 3/193/191 2/194/192
# 80 vertices
# 194 texture params
# 192 normals
# 160 facets

# 1 groups
